<?xml version="1.0" encoding="UTF-8" standalone="no"?>
<!-- Generator: Adobe Illustrator 18.1.1, SVG Export Plug-In . SVG Version: 6.00 Build 0)  -->

<svg
  fill="currentColor"
   version="1.1"
   id="Layer_1"
   x="0px"
   y="0px"
   viewBox="0 0 192 192.00001"
   enable-background="new 0 0 960 560"
   xml:space="preserve"
   inkscape:version="1.3.2 (091e20e, 2023-11-25, custom)"
   sodipodi:docname="micro.svg"
   width="192"
   height="192"
   xmlns:inkscape="http://www.inkscape.org/namespaces/inkscape"
   xmlns:sodipodi="http://sodipodi.sourceforge.net/DTD/sodipodi-0.dtd"
   xmlns="http://www.w3.org/2000/svg"
   xmlns:svg="http://www.w3.org/2000/svg"
   xmlns:rdf="http://www.w3.org/1999/02/22-rdf-syntax-ns#"
   xmlns:cc="http://creativecommons.org/ns#"
   xmlns:dc="http://purl.org/dc/elements/1.1/"><metadata
     id="metadata21"><rdf:RDF><cc:Work
         rdf:about=""><dc:format>image/svg+xml</dc:format><dc:type
           rdf:resource="http://purl.org/dc/dcmitype/StillImage" /></cc:Work></rdf:RDF></metadata><defs
     id="defs19"><filter
       style="color-interpolation-filters:sRGB"
       inkscape:label="Blur"
       id="filter1040"
       x="-0.028037382"
       y="-0.10549451"
       width="1.0560749"
       height="1.210989"><feGaussianBlur
         stdDeviation="2 2"
         result="blur"
         id="feGaussianBlur1038" /></filter></defs><sodipodi:namedview
     pagecolor="#ffffff"
     bordercolor="#666666"
     borderopacity="1"
     objecttolerance="10"
     gridtolerance="10"
     guidetolerance="10"
     inkscape:pageopacity="0"
     inkscape:pageshadow="2"
     inkscape:window-width="2560"
     inkscape:window-height="1369"
     id="namedview17"
     showgrid="false"
     fit-margin-top="0"
     fit-margin-left="0"
     fit-margin-right="0"
     fit-margin-bottom="0"
     inkscape:zoom="3.301097"
     inkscape:cx="134.04635"
     inkscape:cy="98.603585"
     inkscape:window-x="-8"
     inkscape:window-y="189"
     inkscape:window-maximized="1"
     inkscape:current-layer="Layer_1"
     inkscape:pagecheckerboard="0"
     inkscape:showpageshadow="2"
     inkscape:deskcolor="#d1d1d1" /><path
     d="M 96,0 C 42.976744,0 0,42.976744 0,96 c 0,53.02326 42.976744,96 96,96 53.02326,0 96,-42.97674 96,-96 C 192,42.976744 149.02326,0 96,0 Z m 45.5814,109.02326 c -0.93024,3.72093 -2.41861,6.69767 -4.46512,9.11627 -1.86047,2.41861 -3.72093,3.90698 -5.76744,4.65117 -2.04651,0.74418 -4.09303,1.11628 -6.32558,1.11628 -2.23256,0 -4.09303,-0.3721 -5.5814,-1.30233 -1.48837,-0.74418 -2.60465,-2.04651 -3.53488,-3.53488 -0.93024,-1.48837 -1.48838,-3.34884 -1.86047,-5.39535 -0.37209,-2.04651 -0.55814,-4.27907 -0.55814,-6.69768 0,-0.93023 0,-1.86046 0.18605,-3.16279 0.18605,-1.30232 0.37209,-2.97674 0.55814,-2.97674 h -0.37209 c -2.97675,7.44186 -7.06977,12.83721 -12.27907,17.11628 -5.209307,4.27907 -10.976749,6.32558 -17.30233,6.32558 -4.27907,0 -7.813954,-1.67442 -10.232558,-4.83721 -2.604652,-3.16279 -3.906977,-8 -3.906977,-14.32558 0,-0.93023 0,-1.86047 0.186046,-2.97675 0.186047,-0.93023 0.186047,-1.30232 0.372093,-3.162786 h -1.302325 c -1.674419,3.720926 -3.162791,8.930236 -4.27907,13.581396 -1.116279,4.65116 -2.046512,8.93023 -2.604651,12.83721 -0.744186,3.90698 -1.116279,7.44186 -1.488372,10.4186 -0.372093,2.97675 -0.55814,5.02326 -0.744186,6.13954 0.186046,0.93023 0.372093,1.86046 0.558139,2.97674 0.372093,1.11628 0.55814,2.23256 0.930233,3.16279 0.372093,0.93024 0.558139,2.04651 0.744186,2.97675 0.186046,0.93023 0.372093,1.67442 0.372093,2.23256 0,2.60465 -0.55814,4.65116 -1.674419,5.95348 -1.116279,1.30233 -2.418604,2.04652 -3.72093,2.04652 -1.674419,0 -3.162791,-0.55814 -4.27907,-1.48838 -1.302325,-1.11628 -1.860465,-2.79069 -1.860465,-5.02325 0,-3.16279 0.55814,-7.25582 1.674419,-12.09303 1.116279,-4.8372 2.790697,-10.97674 4.837209,-18.23255 1.116279,-3.34884 2.046512,-6.69768 3.162791,-10.04652 1.116279,-3.34883 2.046511,-6.51162 2.976744,-9.30232 0.930233,-2.7907 1.674419,-5.39535 2.418605,-7.627908 0.744186,-2.232558 1.116279,-3.906977 1.302325,-5.209302 0.186047,-0.55814 0.372093,-1.860465 0.55814,-3.72093 0.186046,-1.860466 0.372093,-3.906977 0.744186,-6.325582 0.372093,-2.418605 0.558139,-5.023256 0.930232,-7.627907 0.372093,-2.790698 0.744186,-5.209302 0.930233,-7.44186 0.372093,-1.674419 0.558139,-3.534884 0.930232,-5.581396 0.372094,-2.046511 0.930233,-4.093023 1.674419,-5.767442 0.744186,-1.860465 1.860465,-3.348837 3.162791,-4.651162 1.302325,-1.302326 2.976744,-1.860465 5.023256,-1.860465 2.232558,0 3.72093,0.744186 4.465116,2.046511 0.744186,1.302326 1.116279,2.976744 0.930232,4.83721 -0.186046,1.860465 -0.372093,3.906976 -0.930232,5.953488 -0.55814,2.046512 -1.116279,3.906977 -1.674419,5.395349 C 82.976744,72.186047 81.488372,76.465116 79.813953,80 c -1.674418,3.534884 -3.16279,7.44186 -4.465116,11.534884 -1.116279,2.790697 -1.488372,5.395349 -1.488372,7.627907 0,4.093019 1.302326,7.069769 3.72093,9.302329 2.604652,2.23255 5.581396,3.16279 9.116279,3.16279 2.790698,0 5.581396,-0.93024 8.186047,-2.97675 2.604651,-2.04651 5.023256,-4.46511 7.255809,-7.25581 2.23256,-2.790699 4.09303,-5.767443 5.5814,-9.11628 1.48837,-3.162791 2.60465,-6.139535 3.34884,-8.55814 0.18604,-0.372093 0.37209,-1.116279 0.55814,-2.604651 0.37209,-1.488372 0.55814,-3.162791 0.93023,-5.023256 0.37209,-1.860465 0.74419,-3.72093 1.11628,-5.767442 0.37209,-2.046511 0.74418,-3.72093 0.93023,-5.023255 0.37209,-1.488373 0.55814,-2.976745 0.93023,-4.83721 0.3721,-1.860465 0.93024,-3.534883 1.67442,-5.209302 0.74419,-1.674419 1.86047,-2.976744 2.97675,-4.093023 1.30232,-1.116279 2.79069,-1.674419 4.83721,-1.674419 2.4186,0 3.90697,0.744186 4.83721,2.046512 0.74418,1.302325 1.11627,2.976744 1.11627,4.837209 -0.18604,1.860465 -0.37209,3.72093 -0.93023,5.581395 -0.55814,1.860465 -0.93023,3.348838 -1.30232,4.465117 -1.48838,4.651162 -2.97675,8.744186 -4.46512,12.465116 -1.48837,3.72093 -2.7907,7.069767 -4.09302,9.674419 -1.11628,2.790697 -2.04652,4.837209 -2.7907,6.511627 -0.74419,1.674419 -1.11628,2.790698 -1.11628,3.348838 0,4.837205 1.11628,8.372095 3.16279,10.418605 2.04651,2.04651 4.27907,3.16279 6.69767,3.16279 4.09303,0 7.25582,-1.30233 9.67442,-3.72093 2.41861,-2.60465 4.27907,-7.25581 5.39535,-12.83721 h 1.48837 c 0.3721,5.39535 -0.18604,9.86047 -1.11627,13.5814 z"
     id="path15"
     inkscape:connector-curvature="0"
     style="stroke-width:1.86047" 
     fill="currentColor"/></svg>
