<?xml version="1.0" encoding="UTF-8" standalone="no"?>
<?xml version="1.0" encoding="UTF-8" standalone="no"?><svg
   fill="currentColor"
   width="192"
   height="192"
   viewBox="0 0 192 192"
   version="1.1"
   id="svg843"
   sodipodi:docname="sublime-text.svg"
   inkscape:version="1.3.2 (091e20e, 2023-11-25, custom)"
   xmlns:inkscape="http://www.inkscape.org/namespaces/inkscape"
   xmlns:sodipodi="http://sodipodi.sourceforge.net/DTD/sodipodi-0.dtd"
   xmlns="http://www.w3.org/2000/svg"
   xmlns:svg="http://www.w3.org/2000/svg"
   xmlns:rdf="http://www.w3.org/1999/02/22-rdf-syntax-ns#"
   xmlns:cc="http://creativecommons.org/ns#"
   xmlns:dc="http://purl.org/dc/elements/1.1/">
  <metadata
     id="metadata849">
    <rdf:RDF>
      <cc:Work
         rdf:about="">
        <dc:format>image/svg+xml</dc:format>
        <dc:type
           rdf:resource="http://purl.org/dc/dcmitype/StillImage" />
        <dc:title />
      </cc:Work>
    </rdf:RDF>
  </metadata>
  <defs
     id="defs847" />
  <sodipodi:namedview
     pagecolor="#ffffff"
     bordercolor="#666666"
     borderopacity="1"
     objecttolerance="10"
     gridtolerance="10"
     guidetolerance="10"
     inkscape:pageopacity="0"
     inkscape:pageshadow="2"
     inkscape:window-width="2560"
     inkscape:window-height="1369"
     id="namedview845"
     showgrid="false"
     inkscape:zoom="3.4766083"
     inkscape:cx="54.794784"
     inkscape:cy="141.08578"
     inkscape:window-x="-8"
     inkscape:window-y="189"
     inkscape:window-maximized="1"
     inkscape:current-layer="svg843"
     inkscape:showpageshadow="2"
     inkscape:pagecheckerboard="0"
     inkscape:deskcolor="#d1d1d1" />
  <g
     id="g1"
     transform="matrix(1.6890657,0,0,1.6890657,-66.675485,-66.129104)">
    <path
       inkscape:connector-curvature="0"
       style="fill-opacity:1;stroke-width:0.343897"
       d="M 54.973415,65.475639 135.37664,39.958448 c 0,0 5.70869,-2.991909 4.33311,2.544841 l 0.20634,24.588668 c 0,0 0.9973,3.610918 -3.95483,4.505051 l -32.67025,10.213755 z"
       id="path9"
       fill="currentColor" />
    <path
       inkscape:connector-curvature="0"
       style="fill-opacity:1;stroke-width:0.343897"
       d="m 54.973415,65.475639 c 0,0 -3.163857,0.756571 -2.235335,6.15576 l -0.171947,23.694534 c 0,0 -0.27512,2.991905 5.399189,4.195553 l 79.681048,25.654744 c 0,0 2.68239,1.06607 2.37289,-2.23533 l 0.0344,-26.411319 c 0,0 0.75657,-2.716799 -4.19554,-4.505056 L 103.291,81.810763 Z"
       id="path11"
       fill="currentColor" />
    <path
       inkscape:connector-curvature="0"
       style="fill-opacity:1;stroke-width:0.343897"
       d="m 90.085341,109.8384 -33.908286,10.35132 c 0,0 -4.092379,0.13756 -3.610922,7.80648 0.481456,7.6689 -0.03439,23.10991 -0.03439,23.10991 0,0 0.343898,2.85434 4.264328,1.20364 L 137.1993,126.65499 c 0,0 2.85435,-0.72218 0.44707,-1.51315 -2.40729,-0.75657 -47.561029,-15.30344 -47.561029,-15.30344 z"
       id="path13"
       fill="currentColor" />
  </g>
</svg>
